<svg width="19" height="18" viewBox="0 0 19 18" fill="none" xmlns="http://www.w3.org/2000/svg">
<path d="M1.34814 13.982C1.34814 13.4759 1.47713 12.9781 1.72294 12.5356L6.87786 3.25675C7.3348 2.43426 8.12986 1.8539 9.05249 1.66938V1.66938C9.4677 1.58633 9.89525 1.58633 10.3105 1.66938V1.66938C11.2331 1.8539 12.0282 2.43426 12.4851 3.25675L17.64 12.5356C17.8858 12.9781 18.0148 13.4759 18.0148 13.982V13.982C18.0148 15.6268 16.6814 16.9602 15.0366 16.9602H4.3264C2.68156 16.9602 1.34814 15.6268 1.34814 13.982V13.982Z" stroke="#F23152" stroke-width="1.5"/>
<path d="M9.68164 6.54362L9.68164 9.87695" stroke="#F23152" stroke-width="1.5" stroke-linecap="round" stroke-linejoin="round"/>
<path d="M9.68164 12.3769L9.68164 12.7936" stroke="#F23152" stroke-width="1.5" stroke-linecap="round" stroke-linejoin="round"/>
</svg>
