<svg width="19" height="19" viewBox="0 0 19 19" fill="none" xmlns="http://www.w3.org/2000/svg">
<path fill-rule="evenodd" clip-rule="evenodd" d="M7.86117 5.68393C7.86117 4.9125 8.51629 4.61579 9.60133 4.61579C11.1572 4.61579 13.1226 5.07074 14.6785 5.88173V1.23338C12.9793 0.580629 11.3005 0.323486 9.60133 0.323486C5.44542 0.323486 2.68164 2.42019 2.68164 5.92129C2.68164 11.3806 10.4612 10.5103 10.4612 12.8641C10.4612 13.774 9.64227 14.0707 8.49581 14.0707C6.7966 14.0707 4.62652 13.3982 2.90684 12.4883V17.196C4.81077 17.9872 6.73518 18.3235 8.49581 18.3235C12.7541 18.3235 15.6816 16.2861 15.6816 12.7455C15.6612 6.85096 7.86117 7.89931 7.86117 5.68393Z" fill="#635BFF"/>
</svg>
