<svg width="21" height="21" viewBox="0 0 21 21" fill="none" xmlns="http://www.w3.org/2000/svg">
<g clip-path="url(#clip0_8_595)">
<path d="M9.01514 4.21025C9.01514 3.76822 9.19073 3.3443 9.50329 3.03173C9.81585 2.71917 10.2398 2.54358 10.6818 2.54358C11.1238 2.54358 11.5478 2.71917 11.8603 3.03173C12.1729 3.3443 12.3485 3.76822 12.3485 4.21025C13.3055 4.66277 14.1213 5.36718 14.7085 6.248C15.2957 7.12881 15.6322 8.15281 15.6818 9.21025V11.7102C15.7445 12.2283 15.928 12.7245 16.2175 13.1587C16.507 13.5929 16.8944 13.9531 17.3485 14.2102H4.01514C4.46925 13.9531 4.85664 13.5929 5.14613 13.1587C5.43561 12.7245 5.61909 12.2283 5.6818 11.7102V9.21025C5.73144 8.15281 6.06789 7.12881 6.65509 6.248C7.2423 5.36718 8.05813 4.66277 9.01514 4.21025" stroke="#1D1D1F" stroke-width="1.5" stroke-linecap="round" stroke-linejoin="round"/>
<path d="M8.18164 14.2102V15.0435C8.18164 15.7066 8.44503 16.3425 8.91387 16.8113C9.38271 17.2801 10.0186 17.5435 10.6816 17.5435C11.3447 17.5435 11.9806 17.2801 12.4494 16.8113C12.9182 16.3425 13.1816 15.7066 13.1816 15.0435V14.2102" stroke="#1D1D1F" stroke-width="1.5" stroke-linecap="round" stroke-linejoin="round"/>
</g>
<defs>
<clipPath id="clip0_8_595">
<rect width="20" height="20" fill="white" transform="translate(0.681641 0.0435791)"/>
</clipPath>
</defs>
</svg>
